<?xml version="1.0" encoding="utf-8"?>
<!-- Generator: Adobe Illustrator 16.2.0, SVG Export Plug-In . SVG Version: 6.00 Build 0)  -->
<!DOCTYPE svg PUBLIC "-//W3C//DTD SVG 1.1//EN" "http://www.w3.org/Graphics/SVG/1.1/DTD/svg11.dtd">
<svg version="1.1" id="Слой_1" xmlns="http://www.w3.org/2000/svg" xmlns:xlink="http://www.w3.org/1999/xlink" x="0px" y="0px"
	 width="182.6px" height="47.9px" viewBox="0 0 182.6 47.9" enable-background="new 0 0 182.6 47.9" xml:space="preserve">
<g>
	<g>
		<rect x="108.1" fill="#B91303" width="74.5" height="47.9"/>
		<rect x="108.1" fill="#0000BF" width="74.5" height="24.2"/>
		<rect x="108.1" fill="#0B0F60" width="74.5" height="24.2"/>
		<polygon fill="#FFFFFF" points="108.1,47.9 108.1,0 143.6,24.2 		"/>
		<g>
			<circle fill="#F6CA07" cx="121.7" cy="24.2" r="5"/>
			<g>
				<path fill="#F6CA07" d="M120.9,34l0.8-9.6l0.7,9.6l-0.7,0.4L120.9,34z M121,14.3l0.9-0.5l0.7,0.5l-0.8,9.5L121,14.3z"/>
				<g>
					<polygon fill="#F6CA07" points="120.7,33.8 121.4,25.2 120.9,26.6 120.3,33.6 					"/>
					<polygon fill="#F6CA07" points="120.8,21.1 121.4,22.8 120.7,14.5 120.3,14.7 					"/>
					<polygon fill="#F6CA07" points="122.7,14.5 122.1,22.9 122.6,21.4 123.2,14.8 					"/>
					<polygon fill="#F6CA07" points="122.6,27 122,25.4 122.7,34 123.1,33.8 					"/>
				</g>
			</g>
			<g>
				<path fill="#F6CA07" d="M128.1,31.6l-6.2-7.3l7.3,6.3l-0.2,0.8L128.1,31.6z M114.2,17.7l0.3-0.9l0.8-0.1l6.2,7.3L114.2,17.7z"/>
				<g>
					<polygon fill="#F6CA07" points="127.8,31.7 122.3,25.1 122.8,26.5 127.4,31.8 					"/>
					<polygon fill="#F6CA07" points="118.9,22.6 120.6,23.4 114.2,18 114,18.5 					"/>
					<polygon fill="#F6CA07" points="115.6,16.6 121.1,23 120.4,21.6 116.1,16.5 					"/>
					<polygon fill="#F6CA07" points="124.4,25.5 122.8,24.8 129.4,30.4 129.5,29.9 					"/>
				</g>
			</g>
			<g>
				<path fill="#F6CA07" d="M131.6,25l-9.6-0.8l9.6-0.7l0.4,0.7L131.6,25z M111.9,24.9l-0.5-0.9l0.5-0.7l9.5,0.8L111.9,24.9z"/>
				<g>
					<polygon fill="#F6CA07" points="131.4,25.2 122.8,24.5 124.2,25.1 131.2,25.6 					"/>
					<polygon fill="#F6CA07" points="118.7,25.1 120.4,24.5 112,25.2 112.3,25.6 					"/>
					<polygon fill="#F6CA07" points="112.1,23.2 120.5,23.9 119,23.3 112.3,22.8 					"/>
					<polygon fill="#F6CA07" points="124.6,23.3 122.9,23.9 131.6,23.2 131.4,22.8 					"/>
				</g>
			</g>
			<g>
				<path fill="#F6CA07" d="M129.2,17.8l-7.3,6.2l6.3-7.3l0.8,0.2L129.2,17.8z M115.3,31.7l-0.9-0.3l-0.1-0.8l7.3-6.2L115.3,31.7z"
					/>
				<g>
					<polygon fill="#F6CA07" points="129.3,18.1 122.7,23.7 124,23.1 129.4,18.5 					"/>
					<polygon fill="#F6CA07" points="120.2,27 121,25.4 115.6,31.7 116,31.9 					"/>
					<polygon fill="#F6CA07" points="114.2,30.3 120.6,24.8 119.2,25.5 114.1,29.8 					"/>
					<polygon fill="#F6CA07" points="123.1,21.6 122.4,23.1 128,16.5 127.5,16.4 					"/>
				</g>
			</g>
		</g>
		<polygon fill="#F6CA07" points="110.4,4.8 111.8,5.9 113.2,4.9 112.6,6.6 113.9,7.6 112.2,7.5 111.6,9.1 111.2,7.5 109.5,7.4 
			110.9,6.5 		"/>
		<polygon fill="#F6CA07" points="137.7,22.1 137.7,23.7 139.4,24.2 137.7,24.7 137.7,26.4 136.7,25 134.9,25.6 136,24.2 
			134.9,22.9 136.7,23.4 		"/>
		<polygon fill="#F6CA07" points="111.3,38.8 112.1,40.3 113.8,40 112.5,41.2 113.3,42.7 111.8,41.9 110.5,43.1 110.9,41.4 
			109.3,40.6 111,40.4 		"/>
	</g>
	<g>
		<defs>
			<rect id="SVGID_56_" width="74.5" height="47.9"/>
		</defs>
		<clipPath id="SVGID_2_">
			<use xlink:href="#SVGID_56_"  overflow="visible"/>
		</clipPath>
		<g clip-path="url(#SVGID_2_)">
			<defs>
				<path id="SVGID_58_" d="M82.2,44.5c0,4.1-3.3,7.4-7.4,7.4H-0.3c-4.1,0-7.4-3.3-7.4-7.4V4.2c0-4.1,3.3-7.4,7.4-7.4h75.2
					c4.1,0,7.4,3.3,7.4,7.4V44.5z"/>
			</defs>
			<clipPath id="SVGID_4_">
				<use xlink:href="#SVGID_58_"  overflow="visible"/>
			</clipPath>
			<linearGradient id="SVGID_6_" gradientUnits="userSpaceOnUse" x1="-7.71" y1="24.3486" x2="82.207" y2="24.3486">
				<stop  offset="0" style="stop-color:#CF1400"/>
				<stop  offset="1" style="stop-color:#CF1400"/>
			</linearGradient>
			<polygon clip-path="url(#SVGID_4_)" fill="url(#SVGID_6_)" points="-7.7,-3.1 -7.7,15 -7.7,15.5 -7.7,33.2 -7.7,33.6 -7.7,51.8 
				82.2,51.8 82.2,33.6 82.2,33.2 82.2,15.5 82.2,15 82.2,-3.1 			"/>
		</g>
		<g clip-path="url(#SVGID_2_)">
			<polygon fill="#FFCE00" points="10.8,6.2 12.5,11.3 17.8,11.3 13.5,14.5 15.1,19.6 10.8,16.4 6.4,19.6 8.1,14.5 3.7,11.3 
				9.1,11.3 			"/>
			<polygon fill="#FFCE00" points="24.7,3.7 24.6,5.3 26.1,6 24.5,6.4 24.4,8.1 23.5,6.7 21.9,7.1 23,5.8 22.1,4.4 23.6,5 			"/>
			<polygon fill="#FFCE00" points="30.7,9.5 29.9,11 31,12.2 29.4,11.9 28.5,13.4 28.3,11.7 26.7,11.4 28.2,10.7 28,9 29.1,10.3 			
				"/>
			<polygon fill="#FFCE00" points="28.8,16.7 29.4,18.3 31,18.3 29.7,19.3 30.2,20.9 28.8,19.9 27.5,20.8 28,19.3 26.6,18.3 
				28.3,18.3 			"/>
			<polygon fill="#FFCE00" points="24.7,22 24.6,23.7 26.2,24.3 24.6,24.7 24.5,26.4 23.5,25 21.9,25.4 23,24.1 22.1,22.7 
				23.6,23.3 			"/>
		</g>
	</g>
</g>
</svg>
